<svg enable-background="new 0 0 37 32" height="32" viewBox="0 0 37 32" width="37" xmlns="http://www.w3.org/2000/svg"><path d="m27 0c-2.476 0-4.856.921-6.704 2.595-.702.635-1.303 1.357-1.796 2.154-.493-.797-1.094-1.519-1.796-2.155-1.848-1.673-4.228-2.594-6.704-2.594-5.514 0-10 4.486-10 10 0 3.722 1.158 6.66 3.871 9.825 3.942 4.6 13.919 11.62 14.342 11.917.086.061.187.091.287.091s.201-.03.287-.091c.423-.297 10.4-7.317 14.343-11.917 2.712-3.165 3.87-6.103 3.87-9.825 0-5.514-4.486-10-10-10zm5.371 19.175c-3.495 4.076-12.18 10.341-13.871 11.545-1.691-1.204-10.376-7.469-13.87-11.545-2.545-2.969-3.63-5.713-3.63-9.175 0-4.963 4.038-9 9-9 2.227 0 4.37.829 6.032 2.335.838.76 1.518 1.656 2.02 2.664.17.34.726.34.896 0 .502-1.008 1.182-1.904 2.02-2.663 1.662-1.507 3.805-2.336 6.032-2.336 4.962 0 9 4.037 9 9 0 3.462-1.085 6.206-3.629 9.175z" fill="#828282"/></svg>